PathFileType	4	(X/Y/Z)	Kaydara	
DataRate	CameraRate	NumFrames	NumMarkers	Units	OrigDataRate	OrigDataStartFrame	OrigNumFrames	
120.00	120.00	4	72	mm	120.00	66	261	
Frame#	Time	Hips			RightUpLeg			RightLeg			RightFoot			RightFoot_End			LeftUpLeg			LeftLeg			LeftFoot			LeftFoot_End			Spine			Spine1			Spine2			Spine3			Neck			Head			Head_End			RightShoulder			RightArm			RightForeArm			RightHand			RightHandThumb1			RightHandThumb2			RightHandThumb3			RightHandThumb3_End			RightInHandIndex			RightHandIndex1			RightHandIndex2			RightHandIndex3			RightHandIndex3_End			RightInHandMiddle			RightHandMiddle1			RightHandMiddle2			RightHandMiddle3			RightHandMiddle3_End			RightInHandRing			RightHandRing1			RightHandRing2			RightHandRing3			RightHandRing3_End			RightInHandPinky			RightHandPinky1			RightHandPinky2			RightHandPinky3			RightHandPinky3_End			LeftShoulder			LeftArm			LeftForeArm			LeftHand			LeftHandThumb1			LeftHandThumb2			LeftHandThumb3			LeftHandThumb3_End			LeftInHandIndex			LeftHandIndex1			LeftHandIndex2			LeftHandIndex3			LeftHandIndex3_End			LeftInHandMiddle			LeftHandMiddle1			LeftHandMiddle2			LeftHandMiddle3			LeftHandMiddle3_End			LeftInHandRing			LeftHandRing1			LeftHandRing2			LeftHandRing3			LeftHandRing3_End			LeftInHandPinky			LeftHandPinky1			LeftHandPinky2			LeftHandPinky3			LeftHandPinky3_End			
		X1	Y1	Z1	X2	Y2	Z2	X3	Y3	Z3	X4	Y4	Z4	X5	Y5	Z5	X6	Y6	Z6	X7	Y7	Z7	X8	Y8	Z8	X9	Y9	Z9	X10	Y10	Z10	X11	Y11	Z11	X12	Y12	Z12	X13	Y13	Z13	X14	Y14	Z14	X15	Y15	Z15	X16	Y16	Z16	X17	Y17	Z17	X18	Y18	Z18	X19	Y19	Z19	X20	Y20	Z20	X21	Y21	Z21	X22	Y22	Z22	X23	Y23	Z23	X24	Y24	Z24	X25	Y25	Z25	X26	Y26	Z26	X27	Y27	Z27	X28	Y28	Z28	X29	Y29	Z29	X30	Y30	Z30	X31	Y31	Z31	X32	Y32	Z32	X33	Y33	Z33	X34	Y34	Z34	X35	Y35	Z35	X36	Y36	Z36	X37	Y37	Z37	X38	Y38	Z38	X39	Y39	Z39	X40	Y40	Z40	X41	Y41	Z41	X42	Y42	Z42	X43	Y43	Z43	X44	Y44	Z44	X45	Y45	Z45	X46	Y46	Z46	X47	Y47	Z47	X48	Y48	Z48	X49	Y49	Z49	X50	Y50	Z50	X51	Y51	Z51	X52	Y52	Z52	X53	Y53	Z53	X54	Y54	Z54	X55	Y55	Z55	X56	Y56	Z56	X57	Y57	Z57	X58	Y58	Z58	X59	Y59	Z59	X60	Y60	Z60	X61	Y61	Z61	X62	Y62	Z62	X63	Y63	Z63	X64	Y64	Z64	X65	Y65	Z65	X66	Y66	Z66	X67	Y67	Z67	X68	Y68	Z68	X69	Y69	Z69	X70	Y70	Z70	X71	Y71	Z71	X72	Y72	Z72	

66	0.542	1081.203	893.81699	129.612	1169.8245690538402	901.5071041105913	89.47644630240431	1063.6272325130403	502.33549887056944	19.8694724153414	1036.2181686026838	109.48236933264151	5.248790788633774	919.7519428999701	40.68351116411642	143.39842097246384	1005.8991857872484	860.6161419728502	183.5013838958384	902.5692544137157	470.88286422907566	296.489926314017	789.8038166864117	74.99095240957622	455.13846654394285	642.7773104620646	25.870831944160802	344.6421618865085	1018.5344112332947	1011.7801339734625	78.87685879857004	958.9760013124244	1070.7847169741913	30.270247681852016	893.19863319202	1125.7372771091382	-23.0579444103217	825.5990738250487	1167.746258944917	-78.33753582735748	751.8598429686608	1214.162766787208	-134.43172728257923	676.7649840493247	1250.563584397497	-178.5461179494125	537.9099791464264	1328.411267449534	-189.3938138746002	799.2032640244591	1211.8411059930702	-132.64772985853855	880.1130322447224	1250.2424293379408	-208.3309492714457	974.2746200716124	1035.7140158226925	-286.76702032874465	1139.3713754200744	918.6822038555891	-374.03897712071216	1143.8155932031661	927.0970995349816	-396.04076983496657	1138.9923828462563	922.8545071433216	-418.9766505356934	1137.5804812912472	916.8945480182076	-433.8411813213833	1138.0690266473043	909.3549252892759	-445.28522728582357	1152.933309746305	917.4673140668714	-393.99572063691403	1173.3858674064354	902.8528123855424	-420.7833029766587	1178.3748837158903	890.6966362824943	-439.9148864015242	1173.2294943095203	885.6312802096928	-450.9019371057085	1163.407770285942	883.1197161434166	-459.3840804407635	1157.0775317757877	909.7073315271089	-390.0730304785596	1179.2705881734962	891.2559697740418	-414.0789112000737	1185.1835303213427	877.0121741237982	-434.3514035862233	1179.2008177661644	870.4312345889647	-447.3170966105042	1168.563447266922	867.4547476804729	-456.45721868723325	1159.5941675687493	904.5954476912596	-386.61118871084886	1181.9919608722644	883.6148731915403	-405.09996084714004	1187.5888059851925	870.2284067962316	-422.11456881404155	1182.0532906933245	863.364636947809	-434.27317707570916	1172.1629702711257	860.3215103550046	-442.70236837869237	1161.0304521988064	899.1459473996853	-381.8994260053984	1182.8369665625728	876.5303589033854	-395.93796487533416	1187.9115011483175	864.3868014937984	-408.4602320681118	1184.1606308397045	858.6914187153071	-416.79550373186447	1175.564438602837	855.599223965972	-423.95548924510166	753.3999000495157	1184.0492656627866	-99.43584900602872	693.1120101599472	1090.9532127584646	-45.04008673236303	895.560428131971	1001.7153066235182	-167.45821797009	1096.9172781685525	936.5607421611437	-281.25930631017985	1107.9378404031609	951.7415573059441	-297.93339834054154	1137.053441107402	957.3300064841638	-297.9248196760792	1159.599255112097	958.0363302066969	-297.0300822547878	1180.3363894868005	955.9000739118716	-295.52386753355535	1116.2468799890012	941.8318361302265	-297.9728583682749	1157.838187090684	937.5677041972488	-312.87539676686924	1191.2597981609133	933.9778812865226	-314.18888225949246	1209.4198492812652	934.3301731464892	-309.6015414767518	1222.6848996770882	936.3648219792682	-302.15948203030007	1121.1853518063194	933.2866962278785	-294.60637020668906	1164.4222005308784	924.5057004812863	-307.32350594023245	1201.414126720024	919.4740248544606	-308.2529269873753	1223.5741904972722	919.364273436099	-302.4766687529671	1238.210392959435	921.3305668533117	-294.2161543522874	1123.5906725314583	927.3430213392256	-291.93677880905733	1164.36210397668	914.269031777486	-301.2772219211872	1197.0703635514203	908.7583271440046	-301.55129358761207	1218.6929469299037	908.0549803068304	-295.6949650101464	1232.57191907454	909.6206626497852	-287.7930987687058	1125.334118786176	920.7370815181557	-287.7261122515878	1163.7426706455226	904.6202695845616	-294.0011171588323	1190.4835455576729	898.5093715445746	-293.34294312680765	1206.5208654576177	897.1749131616732	-288.6467733288299	1218.9683040175494	898.08909958876	-281.40267351398717
67	0.55	1081.203	893.81699	129.612	1169.995727675357	901.6164612958262	89.67330698877856	1063.5521736218388	502.4319216844169	20.463349457379675	1036.3019814765516	109.55363661262687	6.128035482244422	919.8200332023439	40.82767711421373	144.3303381617987	1005.7014039477003	860.4959723855562	183.31180941364335	901.8506504437346	471.0138034339589	296.6671333315506	788.9956821285667	75.22405998348947	455.6661212966432	642.0303308375765	26.380368808902777	344.9319246956378	1018.6220565130224	1011.8160659447975	78.85123888710494	959.1193321830079	1070.8580083715246	30.218647908850475	893.4030189491622	1125.8555952646357	-23.143581369556564	825.8720677205765	1167.9236385605839	-78.47233261414931	752.195943840165	1214.3973324870146	-134.6106846754886	677.0981377290475	1250.8063870261942	-178.71612298169438	538.2372514804513	1328.6383071963414	-189.62389986735698	799.5737416254337	1212.1973164057647	-132.74326080131084	880.8743435064702	1251.3192202324096	-208.17670587227724	975.9082166342484	1037.0459359442243	-287.71007401513845	1142.2822142633706	921.1913320914432	-376.0722816452976	1146.955161874255	929.9475317071965	-398.0749950798518	1142.3169917900066	925.9331597510823	-421.2957681119286	1141.02585583559	920.1111848443697	-436.38473587911096	1141.6081502716	912.6686834782391	-448.03813501951385	1156.070579769126	920.2842897271519	-396.10358790182596	1176.8142669687645	906.0179536091706	-423.1871855493005	1181.9751716740732	894.0490078620019	-442.63023624174633	1176.9037991613802	889.0598914226948	-453.8246444087823	1167.1211730886137	886.5843181951412	-462.4876759074684	1160.1811854107002	912.4526033188324	-392.24639971577807	1182.6400230650333	894.3020701277768	-416.5764002921211	1188.7351140910985	880.2519237987931	-437.19658306871935	1182.8390887923947	873.757837240493	-450.41618788925143	1172.2432320851888	870.8182533498233	-459.7560639724715	1162.666953283298	907.2816788749109	-388.8224336702242	1185.277082276334	886.5208763711305	-407.632099764406	1191.0267197668102	873.2918197789735	-424.9572457993872	1185.5716683543492	866.5057911188269	-437.3647496095127	1175.7188799829905	863.4944978399678	-445.9836396215789	1164.0567386196235	901.7501646668205	-384.15238399085354	1186.0304939768907	879.287351088382	-398.50823933688656	1191.217152980032	867.2511328320033	-411.2894487478807	1187.5200152729062	861.6034095113689	-419.81124018610484	1178.9542326346789	858.5341997247365	-427.14213383936686	753.662860324436	1184.1232431156063	-99.67681535423253	692.8278769825331	1090.1464861857753	-47.230554496577746	895.9697893025418	1001.981975217564	-170.0327819013365	1098.0510108389985	937.3356756453924	-284.42149779948045	1109.2732497817524	952.8618560644808	-300.829137315313	1138.4751999795053	958.5914773100478	-300.499206057394	1161.0758163201256	959.3790259822094	-299.41594536653463	1181.8540848557536	957.2958671368433	-297.7827283211956	1117.5952798958751	942.9436736069983	-300.9839908036439	1159.436012534497	939.0396372643347	-315.728307781904	1192.9585878552832	935.5876692976825	-316.85996653749487	1211.1265504587047	935.9497711016488	-312.10376756505144	1224.3611404897674	937.9413313010009	-304.48430129486053	1122.507109618715	934.3341682856724	-297.7155131717939	1165.9728543116348	925.8696135638837	-310.3313605001059	1203.07055428518	920.9785715622068	-311.0757257764474	1225.2380432450586	920.8759405023584	-305.10216906853674	1239.839887533445	922.7928019945656	-296.6506498329311	1124.8880063827341	928.3369254912266	-295.1201347919228	1165.8455756097078	915.5032769489136	-304.436932650364	1198.6411376005772	910.1046133357183	-304.5635108612372	1220.2682932349683	909.4025508872612	-298.52419861304713	1234.113731228053	910.9191112924295	-290.4462118543542	1126.5901502593774	921.6501220186668	-290.9922820325864	1165.146568574736	905.7077232741236	-297.29970768468144	1191.9489171254872	899.6690614097122	-296.5450586753286	1207.9854924318925	898.3270764888822	-291.72587149277746	1220.400880299825	899.1928837887516	-284.3317852648128
68	0.558	1081.203	893.81699	129.612	1170.1592495293376	901.7332937817191	89.87454136746346	1063.4453437724326	502.54391668354765	21.052236950123625	1036.3178356163369	109.64715797985902	6.9977946607973065	919.8281016541139	40.983983150892094	145.25177883613588	1005.5140900376332	860.3702160505726	183.11881016030037	901.778645875725	470.8873199079413	296.5803448606669	788.6349557859701	75.4152381728144	456.3151629237989	641.3754108466973	26.430690288168215	346.03260047915865	1018.696794229251	1011.8431434585443	78.8203327777894	959.2559643737126	1070.9294905533545	30.163235654795187	893.6093223423816	1125.9838901340718	-23.230672470165537	826.1567690822756	1168.1288592461149	-78.60580988784453	752.5547170491479	1214.6793636946043	-134.78504657931964	677.4562795859729	1251.1100770339501	-178.87184291286965	538.5801937074294	1328.9129152641801	-189.78509209896535	799.9644794718181	1212.5865982917244	-132.83539385036497	881.6438623980739	1252.3911974123364	-208.04184397727104	977.5295351404181	1038.3881151539113	-288.66983084950203	1145.1658306253041	923.7152576824908	-378.09040519847974	1150.061089657569	932.8057014427927	-400.089885177579	1145.6066951241783	929.0147869195437	-423.5848095897775	1144.4359379580883	923.3282374428587	-438.8899058360262	1145.1120968207	915.9813481588624	-450.7450578943518	1159.1750157658448	923.1109158081887	-398.18912931216994	1180.2051268747464	909.188066480421	-425.55345051809724	1185.5370945753527	897.4036322155598	-445.2957106671297	1180.540513075877	892.4891037820333	-456.69079458337774	1170.7985067342875	890.0482032313971	-465.5298309917677	1163.2536717193143	915.2097496743903	-394.39566675192145	1185.974607102658	897.3566683059485	-419.0339441121285	1192.2511913880774	883.4975134429823	-439.98823469404556	1186.4429122862925	877.0884600608073	-453.45362930554256	1175.8902925983848	874.1843824600654	-462.987851804652	1165.70986266401	909.9814562976461	-391.0087394539956	1188.530059678873	889.438876258627	-410.12439253532506	1194.4321701446245	876.3652356923054	-427.7480698678547	1189.0587243266295	869.6553461668349	-440.39653194189987	1179.2451498585967	866.6746617926957	-449.2000102361516	1167.0549293043096	904.3700161311901	-386.3798034543392	1189.1948814931707	882.0598321065719	-401.0389509706276	1194.4938105106855	870.1298707112353	-414.0693032063267	1190.8514438131772	864.528867801196	-422.7717448131116	1182.3176608950632	861.4817226711302	-430.26896347352886	753.9431893615052	1184.2461703748502	-99.91404040536182	692.9021290438596	1090.1327960860674	-47.09135935316404	896.6536859495204	1002.7787494167515	-170.3427233177789	1099.6018333759687	939.1783358022336	-285.131840509489	1110.9812340669323	954.9282598541274	-301.44456427106053	1140.277040277895	960.7928459128697	-300.94028372254854	1162.9387468056611	961.6630020189232	-299.75245123065093	1183.764269219544	959.6389784547405	-298.04647396396393	1119.3101426294359	944.9989127377515	-301.6635394195267	1161.3518076652315	941.3381225433465	-316.3693056194809	1194.9724542344495	938.0068188059024	-317.4076012224138	1213.1663434055058	938.407655901783	-312.54610730932086	1226.3987449715207	940.4068056891754	-304.80761403812204	1124.201350344111	936.3476690810866	-298.43905721719597	1167.8519384704168	928.0978294527264	-311.04111503154223	1205.053200765463	923.3320997606172	-311.6894480473064	1227.250326257708	923.2731488960403	-305.5916510818229	1241.8489923015215	925.1968262463982	-297.0112490154191	1126.5629729857178	930.3152195897301	-295.8765125418089	1167.6707533762738	917.6447874031066	-305.21174146016176	1200.5527885741335	912.3485039612862	-305.2606015158149	1222.206507610126	911.6849365705506	-299.1046372164493	1236.048011211214	913.2061812036824	-290.9069863707648	1128.2336586342774	923.5770874327529	-291.7815041574312	1166.909968597606	907.7543955006047	-298.1286764194401	1193.7749801410425	901.7863355986624	-297.3210470400328	1209.8277499223377	900.4669167257589	-292.42125536461486	1222.2378162090297	901.3337047307273	-284.9237335421883
69	0.567	1081.203	893.81699	129.612	1170.3178455418044	901.8100323826993	90.06810119588397	1063.3684140098092	502.60495654487517	21.653943876056125	1036.4044753380642	109.69323607099388	7.874280597286266	919.9019483822739	41.07311224518329	146.16370067273496	1005.3220732976797	860.280458635022	182.93491535887298	901.7628890628353	470.74935206204975	296.40794482901646	788.3730663999489	75.5674661383174	456.8327611879347	641.6909432720556	27.332968094688614	345.3854992896559	1018.8172348280287	1011.8906181560484	78.78247338106783	959.4598841094335	1071.0372096429599	30.093776066375423	893.9036868570439	1126.165321724045	-23.339835166950582	826.5474851353698	1168.4041894650707	-78.769813702617	753.0384330180729	1215.0490412629579	-134.9999146958089	677.953179555059	1251.5179033377224	-179.0777515033752	539.0703776375217	1329.3041282005652	-190.03503990973013	800.477725424344	1213.052430100905	-132.95920017674868	882.5084019292246	1253.5520537947086	-207.9323140979819	979.2313170390104	1039.8473189253307	-289.6669779015089	1148.0872870624055	926.3434661083135	-380.1423005362873	1153.1920512206593	935.7526251561133	-402.13814130493074	1148.907765957113	932.1783018440425	-425.89453722748755	1147.84792721707	926.6233367279896	-441.4061442472394	1148.6100873907583	919.3696748371904	-453.4543798677374	1162.3032736486998	926.0274465244535	-400.3061807745964	1183.599114160141	912.4332394347616	-427.9406976206121	1189.0884753877624	900.8274173220585	-447.9696295912449	1184.1601665098729	895.986603654016	-459.5562111695748	1174.4547248739273	893.5815544827676	-468.5627013888523	1166.3508377842265	918.0601191677162	-396.57446862731484	1189.3141437258112	900.4917945436025	-421.5096530174943	1195.7574713484978	886.8176774604066	-442.7841532103721	1190.0291665561751	880.4928272170395	-456.48412597770727	1179.5153854462233	877.6256690080344	-466.2033028107973	1168.7785605072706	912.7771307134336	-393.22347589040635	1191.792088048598	892.4435960885188	-412.6341174613968	1197.8340408459837	879.5206946042632	-430.5439868603199	1192.5348102169266	872.8864361358063	-443.4224931373473	1182.7563803402625	869.9378205331619	-452.40165504715634	1170.0808913328085	907.0895926019418	-388.634347623325	1192.3728362452568	884.9258598309777	-403.58603862882234	1197.7743289975206	873.0992493074665	-416.85536156177915	1194.1815565502925	867.5450304613273	-425.7303231914855	1185.6762748328238	864.521457784775	-433.38590286140834	754.3381411380924	1184.4563658148318	-100.19396106635524	693.015574292647	1090.1233507782654	-47.21459810597474	897.3571282997672	1003.5440405368863	-170.91897065233562	1101.4476268748656	941.9244101378404	-285.76157979934743	1112.984567086782	957.9010101862176	-301.98244994611747	1142.3738929572442	963.9021724374362	-301.3057322320185	1165.0960650309823	964.8556446683359	-300.0145491390083	1185.9680079212756	962.8909804672335	-298.23673896039696	1121.318993168629	947.9593153923404	-302.2656195319178	1163.5589328263468	944.5427271978285	-316.93667320871776	1197.2760613325024	941.3325319353536	-317.8835051641359	1215.4955630406296	941.7725227055192	-312.9172611990619	1228.725995058287	943.779696948675	-305.0597602005588	1126.188648014729	939.2651654534578	-299.08468838861563	1170.0209880272566	931.2303016810749	-311.6764534304509	1207.3240005387322	926.5902147971935	-312.2307581835003	1229.5503244856195	926.5753800247169	-306.0093589685511	1244.1460055868206	928.5063183864154	-297.30010359071036	1128.5304181323136	933.1966254182134	-296.5545911573301	1169.7850924884308	920.6889147081985	-305.91104753422707	1202.751916889983	915.4951347025087	-305.883862396241	1224.4317389705668	914.8704026788773	-299.6118064609149	1238.2694433760014	916.3967051269733	-291.2944899572614	1130.1690866427784	926.406159138949	-292.49177525832397	1168.9619121166213	910.7020821039835	-298.8808991439861	1195.8880622379004	904.8044645590534	-298.021498098728	1211.9566118101504	903.5077523219535	-293.0414474831712	1224.3614352952418	904.3757867153358	-285.44045331704166
